<svg width="28" height="28" viewBox="0 0 28 28" fill="none" xmlns="http://www.w3.org/2000/svg">
<path d="M14 3.5H5.83333C5.21449 3.5 4.621 3.74583 4.18342 4.18342C3.74583 4.621 3.5 5.21449 3.5 5.83333V22.1667C3.5 22.7855 3.74583 23.379 4.18342 23.8166C4.621 24.2542 5.21449 24.5 5.83333 24.5H22.1667C22.7855 24.5 23.379 24.2542 23.8166 23.8166C24.2542 23.379 24.5 22.7855 24.5 22.1667V14" stroke="white" stroke-width="2" stroke-linecap="round" stroke-linejoin="round"/>
<path d="M21.4375 3.0625C21.9017 2.59837 22.5312 2.33762 23.1875 2.33762C23.8439 2.33762 24.4734 2.59837 24.9375 3.0625C25.4017 3.52663 25.6624 4.15612 25.6624 4.8125C25.6624 5.46887 25.4017 6.09837 24.9375 6.5625L14 17.5L9.33337 18.6667L10.5 14L21.4375 3.0625Z" stroke="white" stroke-width="2" stroke-linecap="round" stroke-linejoin="round"/>
</svg>
