<svg width="24" height="24" viewBox="0 0 24 24" fill="none" xmlns="http://www.w3.org/2000/svg">
<path d="M21 9C21.8284 9 22.5 8.32843 22.5 7.5C22.5 6.67157 21.8284 6 21 6C20.1716 6 19.5 6.67157 19.5 7.5C19.5 8.32843 20.1716 9 21 9Z" fill="#49C6CD"/>
<path d="M13.5 21.75H8.25V20.25H13.5C17.2222 20.25 20.25 17.2222 20.25 13.5V10.5H21.75V13.5C21.75 18.0487 18.0487 21.75 13.5 21.75Z" fill="#49C6CD"/>
<path d="M12 15.75C9.93225 15.75 8.25 14.0677 8.25 12C8.25 9.93225 9.93225 8.25 12 8.25C14.0677 8.25 15.75 9.93225 15.75 12C15.75 14.0677 14.0677 15.75 12 15.75ZM12 9.75C10.7595 9.75 9.75 10.7595 9.75 12C9.75 13.2405 10.7595 14.25 12 14.25C13.2405 14.25 14.25 13.2405 14.25 12C14.25 10.7595 13.2405 9.75 12 9.75Z" fill="#49C6CD"/>
<path d="M3 18C3.82843 18 4.5 17.3284 4.5 16.5C4.5 15.6716 3.82843 15 3 15C2.17157 15 1.5 15.6716 1.5 16.5C1.5 17.3284 2.17157 18 3 18Z" fill="#49C6CD"/>
<path d="M3.75 13.5H2.25V10.5C2.25 5.95125 5.95125 2.25 10.5 2.25H15.75V3.75H10.5C6.77775 3.75 3.75 6.77775 3.75 10.5V13.5Z" fill="#49C6CD"/>
</svg>
